<svg xmlns="http://www.w3.org/2000/svg" width="32" height="55" viewBox="0 0 32 55">
  <g id="love" transform="translate(-43 -265)">
    <path id="Icon_awesome-comment" data-name="Icon awesome-comment" d="M16,2.25c-8.838,0-16,5.819-16,13a11.539,11.539,0,0,0,3.563,8.169A15.9,15.9,0,0,1,.138,29.406a.5.5,0,0,0-.094.544.489.489,0,0,0,.456.3,14.293,14.293,0,0,0,8.788-3.213A19.061,19.061,0,0,0,16,28.25c8.838,0,16-5.819,16-13S24.838,2.25,16,2.25Z" transform="translate(43 262.75)" fill="#fff"/>
    <text id="_203" data-name="203" transform="translate(48 317)" fill="#fff" font-size="14" font-family="Ubuntu-Medium, Ubuntu" font-weight="500" letter-spacing="-0.02em"><tspan x="0" y="0">203</tspan></text>
  </g>
</svg>
