<svg xmlns="http://www.w3.org/2000/svg" width="176.695" height="27.752" viewBox="0 0 176.695 27.752">
  <g id="connect" transform="translate(-22.524 -118.232)">
    <path id="Path_12" data-name="Path 12" d="M23.48,87.8q-6.295,0-9.59-3.608t-3.3-10.249a16.179,16.179,0,0,1,1.006-5.89,12.747,12.747,0,0,1,2.755-4.377,11.485,11.485,0,0,1,4.171-2.7,14.64,14.64,0,0,1,5.252-.923,16.353,16.353,0,0,1,2.98.25,18.691,18.691,0,0,1,2.347.577,11.146,11.146,0,0,1,1.675.671c.449.23.771.41.969.537l-1.677,4.837A13.761,13.761,0,0,0,27.3,65.811a12.9,12.9,0,0,0-3.594-.46,7.741,7.741,0,0,0-2.625.46,5.908,5.908,0,0,0-2.273,1.478,7.451,7.451,0,0,0-1.583,2.629,11.369,11.369,0,0,0-.595,3.916,14.387,14.387,0,0,0,.391,3.434,7.376,7.376,0,0,0,1.267,2.745,6.094,6.094,0,0,0,2.291,1.824A7.956,7.956,0,0,0,24,82.507a14.924,14.924,0,0,0,2.271-.154,16.012,16.012,0,0,0,1.787-.364,9.328,9.328,0,0,0,1.379-.479q.595-.27,1.078-.5l1.6,4.8a13.463,13.463,0,0,1-3.464,1.381,19.663,19.663,0,0,1-5.178.615" transform="translate(11.931 58.179)" fill="#ac8035"/>
    <path id="Path_13" data-name="Path 13" d="M48.236,73.948a16.8,16.8,0,0,1-.987,6.006,12.416,12.416,0,0,1-2.7,4.339,11.052,11.052,0,0,1-4.078,2.629,14.425,14.425,0,0,1-5.084.883,14.065,14.065,0,0,1-4.991-.883,11.43,11.43,0,0,1-4.1-2.629,12.332,12.332,0,0,1-2.757-4.339,16.534,16.534,0,0,1-1.006-6.006,16,16,0,0,1,1.043-6.006,12.807,12.807,0,0,1,2.813-4.357,11.478,11.478,0,0,1,4.1-2.647,13.7,13.7,0,0,1,4.9-.885,14.05,14.05,0,0,1,4.991.885,11.286,11.286,0,0,1,4.1,2.647,12.517,12.517,0,0,1,2.755,4.357,16.542,16.542,0,0,1,1.006,6.006m-19.7,0A12.49,12.49,0,0,0,29,77.48a8.14,8.14,0,0,0,1.343,2.7,5.967,5.967,0,0,0,2.141,1.748,7.129,7.129,0,0,0,5.792,0,5.932,5.932,0,0,0,2.16-1.748,8.174,8.174,0,0,0,1.341-2.7,12.419,12.419,0,0,0,.466-3.532,12.608,12.608,0,0,0-.466-3.55,8.164,8.164,0,0,0-1.341-2.725,5.907,5.907,0,0,0-2.16-1.746,6.6,6.6,0,0,0-2.887-.615,6.4,6.4,0,0,0-2.9.633,6.145,6.145,0,0,0-2.141,1.766A8.131,8.131,0,0,0,29,70.436,12.547,12.547,0,0,0,28.534,73.948Z" transform="translate(23.191 58.179)" fill="#ac8035"/>
    <path id="Path_14" data-name="Path 14" d="M55.577,86.958q-2.5-4.565-5.4-9.02a91.771,91.771,0,0,0-6.182-8.4V86.958H38.256V60.36h4.731q1.23,1.267,2.718,3.109T48.742,67.4q1.545,2.09,3.072,4.337t2.87,4.319V60.36h5.772v26.6Z" transform="translate(38.013 58.487)" fill="#ac8035"/>
    <path id="Path_15" data-name="Path 15" d="M57.629,86.958q2.495-4.565,5.4-9.02a91.051,91.051,0,0,1,6.182-8.4V86.958h5.735V60.36H70.218q-1.23,1.267-2.72,3.109T64.463,67.4q-1.547,2.09-3.074,4.337t-2.868,4.319V60.36H52.75v26.6Z" transform="translate(51.679 58.487)" fill="#ac8035"/>
    <path id="Path_16" data-name="Path 16" d="M67.242,86.959V60.36H84.674v5.028H73.053v5.22H83.37v4.913H73.053v6.41H85.53v5.028Z" transform="translate(65.343 58.487)" fill="#ac8035"/>
    <path id="Path_17" data-name="Path 17" d="M91.173,87.8q-6.295,0-9.592-3.608t-3.3-10.249a16.179,16.179,0,0,1,1.006-5.89,12.722,12.722,0,0,1,2.757-4.377,11.453,11.453,0,0,1,4.171-2.7,14.64,14.64,0,0,1,5.252-.923,16.346,16.346,0,0,1,2.978.25,18.606,18.606,0,0,1,2.347.577,11.263,11.263,0,0,1,1.677.671c.447.23.769.41.968.537l-1.675,4.837a13.78,13.78,0,0,0-2.776-1.113,12.885,12.885,0,0,0-3.592-.46,7.752,7.752,0,0,0-2.627.46A5.887,5.887,0,0,0,86.5,67.289a7.394,7.394,0,0,0-1.583,2.629,11.32,11.32,0,0,0-.6,3.916,14.387,14.387,0,0,0,.391,3.434,7.407,7.407,0,0,0,1.267,2.745,6.125,6.125,0,0,0,2.291,1.824,7.968,7.968,0,0,0,3.427.671,14.925,14.925,0,0,0,2.271-.154,15.921,15.921,0,0,0,1.787-.364,9.25,9.25,0,0,0,1.379-.479c.4-.18.758-.346,1.08-.5l1.6,4.8a13.462,13.462,0,0,1-3.464,1.381,19.658,19.658,0,0,1-5.176.615" transform="translate(75.754 58.179)" fill="#ac8035"/>
    <path id="Path_18" data-name="Path 18" d="M111.914,60.36v5.105h-7.785V86.959h-5.81V65.465H90.535V60.36Z" transform="translate(87.304 58.487)" fill="#ac8035"/>
  </g>
</svg>
