<svg xmlns="http://www.w3.org/2000/svg" width="20.082" height="20" viewBox="0 0 20.082 20">
  <g id="search" transform="translate(-166.98 135)">
    <g id="Layer_1" data-name="Layer 1" transform="translate(166.98 -135)">
      <path id="Path_21" data-name="Path 21" d="M11.661,13.475a4.551,4.551,0,0,0-.489.245,4.666,4.666,0,0,1-5.122-.865L5.543,12.3A6.215,6.215,0,0,1,5,11.419a4.046,4.046,0,0,1-.326-1.093,4.486,4.486,0,0,1,.228-2.48A4.763,4.763,0,0,1,5.869,6.3a5.351,5.351,0,0,1,1-.8,4.584,4.584,0,0,1,2.2-.6,4.763,4.763,0,0,1,2.545.636,4.975,4.975,0,0,1,.8.62l.179.179a3.85,3.85,0,0,1,.571.7,4.731,4.731,0,0,1,.653,1.631,4.894,4.894,0,0,1,0,1.305,4.421,4.421,0,0,1-.261,1.175c-.489,1.338-.8.865-.326,1.338l.718.718a12.415,12.415,0,0,1,1.044,1.093.962.962,0,0,1-.114,1.077.93.93,0,0,1-1.06.212,2.773,2.773,0,0,1-.75-.685Zm.587-3.8a3.018,3.018,0,0,0-.31-1.517l-.294-.489a2.9,2.9,0,0,0-1.028-.848,2.741,2.741,0,0,0-1.175-.294,3.018,3.018,0,0,0-2.431,4.992,3.442,3.442,0,0,0,.865.653,3.051,3.051,0,0,0,2.48.114l.506-.245a2.757,2.757,0,0,0,.408-.326,4.258,4.258,0,0,0,.375-.392A3.018,3.018,0,0,0,12.248,9.674ZM9.328,0H8.169c-.31,0-.816.114-1.191.163H6.408A8.61,8.61,0,0,0,5.331.326L4.809.506a5.84,5.84,0,0,0-.946.31,5.269,5.269,0,0,0-1.354.816H2.427l-.245.245a4.144,4.144,0,0,0-.326.375l-.114.131A6.884,6.884,0,0,0,.535,5.041a.9.9,0,0,1-.114.522c-.1.6-.179.979-.245,1.631,0,.359-.1.767-.114,1.142A30.359,30.359,0,0,0,.013,11.99v.587A19.168,19.168,0,0,0,.6,15.253a6.835,6.835,0,0,0,1.631,2.822c.2.179.359.343.571.506h.1l.375.245a5.5,5.5,0,0,0,1.778.75l.522.114c.6.1,1.06.163,1.631.212h.587a11.033,11.033,0,0,1,1.794.1H10.8a12.458,12.458,0,0,0,2.365-.147,7.913,7.913,0,0,0,1.109-.147c.359-.049.7-.131,1.06-.212a5.155,5.155,0,0,0,2.284-1.158,4.274,4.274,0,0,0,.489-.457l.277-.343A7.439,7.439,0,0,0,19.8,13.931a8.663,8.663,0,0,0,.163-1.109v-.555c0-.31.1-1.452.1-1.794V6.9a8.238,8.238,0,0,0-1.631-4.6,5.2,5.2,0,0,0-.962-.93,5.579,5.579,0,0,0-2.316-.9,7.6,7.6,0,0,1-1.06-.2c-.31-.049-.375-.049-.555-.082A25.612,25.612,0,0,0,10.584,0Z" transform="translate(0.02)" fill="#ac8035" fill-rule="evenodd"/>
    </g>
  </g>
</svg>
