<?xml version="1.0" encoding="UTF-8"?>
<!DOCTYPE svg PUBLIC "-//W3C//DTD SVG 1.1//EN" "http://www.w3.org/Graphics/SVG/1.1/DTD/svg11.dtd">
<!-- Creator: CorelDRAW 2018 (64-Bit) -->
<svg xmlns="http://www.w3.org/2000/svg" xml:space="preserve" width="1.52644in" height="1.52037in" version="1.1" style="shape-rendering:geometricPrecision; text-rendering:geometricPrecision; image-rendering:optimizeQuality; fill-rule:evenodd; clip-rule:evenodd"
viewBox="0 0 2099.07 2090.71"
 xmlns:xlink="http://www.w3.org/1999/xlink">
 <defs>
  <style type="text/css">
   <![CDATA[
    .fil0 {fill:#AC8035}
   ]]>
  </style>
 </defs>
 <g id="Layer_x0020_1">
  <metadata id="CorelCorpID_0Corel-Layer"/>
  <path class="fil0" d="M970.92 1.3c-31.71,3 -88.14,2.24 -124.18,5.13 -40.06,3.17 -81.23,5.34 -120.9,10.47 -19.89,2.58 -39.78,3.67 -59.56,6.07 -16.02,1.92 -95.22,13.5 -112.74,18.14 -17.51,4.64 -36.11,7.36 -53.91,11.69 -34.51,8.45 -68.46,19.02 -98.6,32.35 -51.64,22.85 -100.07,50.87 -140.72,88.52 -3.14,2.9 -5.72,4.43 -8.62,7.05l-25.02 24.91c-13.82,15.46 -19.05,18.18 -34.68,38.62l-11.3 13.57c-53.14,71.91 -107.15,172.54 -125.58,267.24 -3.38,17.62 -9.04,35.76 -12,53.77 -10.54,62.91 -19.19,102.1 -26.48,169.89 -4.11,38.21 -9.56,80.12 -11.48,119.19 -4.95,101.57 -9.35,278.86 2.02,381.72 2.13,19.37 3.77,41.63 5.27,60.64 5.79,71.81 28.02,207.54 48.5,278.69 29.31,101.92 88.21,217.37 164.97,293.54 20.06,19.89 37.23,36.85 60.12,53.74 3.81,2.86 6.28,4.74 9.84,7.29 13.43,9.49 24.77,17.62 39.08,26.45 56.42,34.89 123.59,57.78 190.75,71.36 17.65,3.56 36.36,8.41 54.05,11.37 62.53,10.47 110.79,17.13 173.87,22.61l60.12 5.51c37.3,4.43 150.66,8.66 187.54,9.25 21.08,0.35 42.36,0.63 63.95,0.63 21.04,0 41.87,-1.6 62.35,-1.85 82.03,-1.01 167.13,-6.84 246.48,-15.01 39.78,-4.04 76.87,-10.43 115,-15.67 38.73,-5.34 72.82,-14.27 109.43,-21.74 78.64,-16.12 179,-64.58 239.53,-120.65 16.75,-15.53 34.58,-30.01 49.68,-48.57l29.84 -35.69c86.74,-113.23 125.78,-230.18 148.25,-375.82 5.72,-37.48 13.71,-75.33 16.71,-114.27l6.63 -58.69c4.43,-31.43 9.49,-150.8 9.73,-186.01 0.45,-63.85 0.63,-194.14 -6.42,-253.39l-3.04 -45.22c-3.91,-26.76 -4.61,-50.04 -8.3,-74.39 -28.79,-190.27 -53.77,-328.93 -175.16,-479.77 -27.98,-34.82 -64.59,-68.81 -100.42,-96.1 -66.26,-50.56 -146.38,-80.11 -228.06,-99.37 -34.68,-8.16 -78.79,-13.68 -110.79,-20.27 -18.67,-3.84 -39.74,-4.22 -58.27,-7.36 -62.38,-10.54 -243.93,-20.17 -307.29,-20.03 -32.03,0.03 -102.55,-2.2 -130.22,0.45zm78.61 1286.02c-26.42,0 -54.57,-5.93 -77.53,-13.96 -19.47,-6.82 -42.95,-18.19 -59.4,-30.64 -48.73,-36.88 -82.29,-81.4 -96.05,-143.56 -2.49,-11.26 -6.6,-41.01 -6.73,-52.9l6.51 -54.6c13.61,-61.58 59.41,-126.36 114.6,-155.49 23.74,-12.53 36.34,-18.5 63.1,-25.48 62.02,-16.18 129.5,-4.17 182.67,27.06 55.97,32.87 98.61,91.46 112.1,155.11 9.75,46.02 7.7,87.13 -7.45,131.28 -2.38,6.93 -5.29,15.1 -8.16,20.88 -16.02,32.25 -36.96,63.16 -65.16,85.87 -44.95,36.2 -95.42,56.42 -158.5,56.42zm-463.24 -561.98c0,36.58 28.13,56.16 53.4,81.65 27.45,27.7 25.16,65.71 2.66,94.93 -3.02,3.93 -5.33,5.23 -9.12,8.3 -33.44,27.17 -69.55,10.31 -101.09,16.53 -34.67,6.83 -63.47,33.97 -63.47,70.13l0 97.29c0,28.56 18.09,49.45 40.7,62.41 35.28,20.22 84.87,-4.96 120.73,21.59 23.94,17.72 28.81,34.87 28.81,64.12 0,35.63 -40.23,54.51 -60.15,83.61 -5.32,7.77 -12.45,23.25 -12.45,35.47 0,47.59 18.59,55.62 57,94.02 26.79,26.8 45.23,54.1 86.76,54.1 58.97,0 73.3,-72.61 127.79,-72.61 27.41,0 48.48,10.45 61.83,29.66 14.17,20.39 12.23,37.62 12.23,70.54 -0.01,37.45 9.09,65.78 43.52,82.81 8.73,4.31 20.35,7.22 33.44,7.22l87.13 0c26.44,0 46.1,-11.38 57.91,-26.32 30.93,-39.19 14.02,-68.56 19.38,-105.49 4.34,-29.8 33.34,-58.42 66.47,-58.42 56.75,0 63.81,43.43 97.75,61.99 30.98,16.96 63.75,13.52 90.13,-9.16l10.5 -9.83c0.21,-0.22 0.51,-0.51 0.73,-0.72l23.44 -23.04c21.31,-21.32 56.27,-49.04 56.27,-81.68 0,-41.78 -10.86,-48.69 -37.39,-75.86 -9.01,-9.23 -18.01,-14.99 -24.99,-25.86 -15.03,-23.46 -15.05,-45.51 -2.51,-70.62 27.05,-54.22 92.52,-29.61 126.09,-39.46 30.31,-8.89 50.61,-36.19 50.61,-71.37l0 -91.48c0,-14.88 -2.34,-24.95 -7.22,-34.89 -34.45,-70 -103.45,-16.06 -151.29,-54.92 -14.2,-11.53 -25.91,-29.94 -25.91,-55.41 0,-59.86 74.06,-67.6 74.06,-129.24 0,-41.49 -22.85,-55.52 -46.1,-78.78 -15.68,-15.69 -44.97,-48.03 -63.27,-57.26 -12.91,-6.51 -33.58,-9.73 -50.92,-5.38 -7.65,1.92 -15.48,5.35 -21.71,8.79 -21.9,12.09 -49.25,61.48 -86.64,61.48 -32.7,0 -53.24,-8.27 -69.67,-36.35 -13.05,-22.29 -7.18,-52.77 -8.73,-85.66 -1.07,-22.86 -17.77,-46.29 -36.74,-57.64 -23.16,-13.85 -47.42,-10.58 -82.36,-10.58 -33.71,0 -62.81,-3.3 -83.97,10.43 -63.63,41.29 -20.05,100.77 -45.5,143.27 -11.22,18.72 -32,36.54 -56.4,36.54 -47.38,0 -51.76,-19.97 -83.12,-49.03l-17.32 -13.17c-4.06,-2.6 -16.39,-7.17 -22.14,-8.36 -38.37,-7.94 -61.4,11.32 -83.26,33.17l-45.77 44.26c-19.42,18.59 -30.11,34.31 -30.11,64.29z"/>
 </g>
</svg>
