<svg xmlns="http://www.w3.org/2000/svg" width="27.607" height="55" viewBox="0 0 27.607 55">
  <g id="love" transform="translate(-46 -265)">
    <path id="Icon_ionic-ios-share-alt" data-name="Icon ionic-ios-share-alt" d="M31.864,16.411,21.722,6.923a.519.519,0,0,0-.4-.173c-.316.014-.719.237-.719.575v4.758a.307.307,0,0,1-.259.295C10.257,13.924,6.009,21.471,4.507,29.306c-.058.309.359.6.553.352C8.741,25.022,13.219,22,20.3,21.938a.356.356,0,0,1,.3.345v4.672a.617.617,0,0,0,1.042.381l10.214-9.653a.794.794,0,0,0,.252-.6A.963.963,0,0,0,31.864,16.411Z" transform="translate(41.498 258.251)" fill="#fff"/>
    <text id="_27" data-name="27" transform="translate(52 317)" fill="#fff" font-size="14" font-family="Ubuntu-Medium, Ubuntu" font-weight="500" letter-spacing="-0.02em"><tspan x="0" y="0">27</tspan></text>
  </g>
</svg>
