<svg xmlns="http://www.w3.org/2000/svg" width="20.082" height="20" viewBox="0 0 20.082 20">
  <g id="share" transform="translate(-104.98 122)">
    <g id="Layer_1" data-name="Layer 1" transform="translate(104.98 -122)">
      <path id="Path_22" data-name="Path 22" d="M7.142,6.2l.734.75L9.507,5.318v6.313c0,.294,0,.2.359.2h.7V5.3L12.2,6.933l.865-.734L10.078,3.263ZM5.951,15.09h8.157a.08.08,0,0,0,.082-.082V7.7H11.612V8.76h1.452V14H7.011V8.679H8.643V7.618H5.951ZM9.328,0H8.169c-.31,0-.816.114-1.191.163H6.408A8.61,8.61,0,0,0,5.331.326L4.809.506a5.84,5.84,0,0,0-.946.31,5.269,5.269,0,0,0-1.354.816H2.427l-.245.245a4.144,4.144,0,0,0-.326.375l-.114.131A6.884,6.884,0,0,0,.535,5.041a.9.9,0,0,1-.114.522c-.1.6-.179.979-.245,1.631,0,.359-.1.767-.114,1.142A30.359,30.359,0,0,0,.013,11.99v.587A19.168,19.168,0,0,0,.6,15.253a6.835,6.835,0,0,0,1.631,2.822c.2.179.359.343.571.506h.1l.375.245a5.5,5.5,0,0,0,1.778.75l.522.114c.6.1,1.06.163,1.631.212h.587a11.033,11.033,0,0,1,1.794.1H10.8a12.458,12.458,0,0,0,2.365-.147,7.913,7.913,0,0,0,1.109-.147c.359-.049.7-.131,1.06-.212a5.155,5.155,0,0,0,2.284-1.158,4.274,4.274,0,0,0,.489-.457l.277-.343A7.439,7.439,0,0,0,19.8,13.931a8.663,8.663,0,0,0,.163-1.109v-.555c0-.31.1-1.452.1-1.794V6.9a8.385,8.385,0,0,0-1.631-4.6,5.2,5.2,0,0,0-.962-.93,5.579,5.579,0,0,0-2.316-.9,7.6,7.6,0,0,1-1.06-.2c-.31-.049-.375-.049-.555-.082A25.612,25.612,0,0,0,10.584,0Z" transform="translate(0.02)" fill="#ac8035" fill-rule="evenodd"/>
    </g>
  </g>
</svg>
