<svg xmlns="http://www.w3.org/2000/svg" width="10.282" height="10.282" viewBox="0 0 10.282 10.282">
  <path id="star" d="M35.539,16.145l-1.274-1q.611-.688,1.269-1.315c.176-.17.286-.277.329-.324-.139-.023-.543-.115-1.208-.277q-.715-.179-.945-.26l.512-1.492a12.729,12.729,0,0,1,1.962.989,16.067,16.067,0,0,1-.2-2.254h1.491a19.745,19.745,0,0,1-.228,2.274c.112-.043.355-.153.725-.329.509-.232.974-.428,1.4-.593l.442,1.526q-.936.213-2.164.416l1.008,1.154c.2.234.362.424.48.572l-1.292.859-1.127-1.9c-.341.612-.734,1.266-1.18,1.956m1.223-8.106a5.141,5.141,0,1,1-5.141,5.141A5.141,5.141,0,0,1,36.762,8.039Z" transform="translate(-31.621 -8.039)" fill="#ffbb1f" fill-rule="evenodd"/>
</svg>
